<?xml version="1.0" encoding="UTF-8"?>
<svg id="Capa_1" xmlns="http://www.w3.org/2000/svg" viewBox="0 0 476.68 420.65">
  <defs>
    <style>
      .cls-1 {
        fill: #fff;
      }
    </style>
  </defs>
  <path class="cls-1" d="M437.32,39.75h0C411.88,14.31,378.02.29,341.99.29s-69.92,14.05-95.42,39.55l-8.08,8.08-8.28-8.28C204.64,14.08,170.71,0,134.68,0S64.9,14.01,39.45,39.45-.1,98.9,0,134.88C0,170.78,14.08,204.64,39.65,230.2l184.6,184.61c3.71,3.71,8.79,5.83,13.93,5.83s10.29-2.09,13.93-5.73l185.01-184.32c25.5-25.51,39.55-59.4,39.55-95.41.1-36.06-13.87-69.96-39.36-95.44ZM437.13,135.2c.09,25.41-9.81,49.35-27.87,67.42l-171.06,170.39L67.52,202.33c-18.04-18.04-27.98-42-27.98-67.46s9.9-49.47,27.88-67.36c17.98-17.98,41.87-27.88,67.26-27.88s49.51,9.94,67.56,27.98l22.22,22.22c3.75,3.75,8.71,5.81,13.98,5.81s10.24-2.06,13.98-5.81l22.02-22.02c18.04-18.04,42-27.98,67.46-27.98s49.29,9.91,67.36,27.88c17.98,17.98,27.88,41.94,27.88,67.48Z"/>
</svg>